HIERARCHY
ROOT Hips
{
  OFFSET -6.20755 105.465 125.341
  CHANNELS 6 Xposition Yposition Zposition Zrotation Xrotation Yrotation
  JOINT RightUpLeg
  {
    OFFSET -8.9458 -8.66707 0.101652
    CHANNELS 3 Zrotation Xrotation Yrotation
    JOINT RightLeg
    {
      OFFSET 0 -44.4227 1.3727
      CHANNELS 3 Zrotation Xrotation Yrotation
      JOINT RightFoot
      {
        OFFSET 0.253549 -42.0924 -1.46059
        CHANNELS 3 Zrotation Xrotation Yrotation
        JOINT RightToes
        {
          OFFSET 0.04 -4.41509 8.4991
          CHANNELS 3 Zrotation Xrotation Yrotation
          End Site
          {
            OFFSET -0.08 -0.137448 9.77979
          }
        }
      }
    }
  }
  JOINT Spine
  {
    OFFSET 0 11.8905 0
    CHANNELS 3 Zrotation Xrotation Yrotation
    JOINT Spine1
    {
      OFFSET 0 25.6574 0.127663
      CHANNELS 3 Zrotation Xrotation Yrotation
      JOINT HEad
      {
        OFFSET 0 8.73416 0.011341
        CHANNELS 3 Zrotation Xrotation Yrotation
        End Site
        {
          OFFSET -0.29 12.7742 2.51395
        }
      }
      JOINT LeftShoulder1
      {
        OFFSET 8.99 -0.362252 -0.22
        CHANNELS 3 Zrotation Xrotation Yrotation
        JOINT LeftArm
        {
          OFFSET 10.2827 -0.00338 0.322123
          CHANNELS 3 Zrotation Xrotation Yrotation
          JOINT LeftForeArm
          {
            OFFSET 32.7669 0.099144 -1.42434
            CHANNELS 3 Zrotation Xrotation Yrotation
            JOINT LeftHand
            {
              OFFSET 27.5643 0.085362 1.02216
              CHANNELS 3 Zrotation Xrotation Yrotation
              End Site
              {
                OFFSET 16.7443 -0.6 1.50291
              }
            }
          }
        }
      }
      JOINT RightShoulder
      {
        OFFSET -8.99 -0.362252 -0.22
        CHANNELS 3 Zrotation Xrotation Yrotation
        JOINT RightArm
        {
          OFFSET -10.2827 -0.00338 0.322123
          CHANNELS 3 Zrotation Xrotation Yrotation
          JOINT RightForeArm
          {
            OFFSET -32.8971 0.099144 -1.42434
            CHANNELS 3 Zrotation Xrotation Yrotation
            JOINT RightHand
            {
              OFFSET -27.4921 0.085362 1.02216
              CHANNELS 3 Zrotation Xrotation Yrotation
              End Site
              {
                OFFSET -16.6312 -0.6 1.50291
              }
            }
          }
        }
      }
    }
  }
  JOINT LeftUpLeg
  {
    OFFSET 8.9458 -8.66707 0.101652
    CHANNELS 3 Zrotation Xrotation Yrotation
    JOINT LeftLeg
    {
      OFFSET 0 -44.4227 1.3727
      CHANNELS 3 Zrotation Xrotation Yrotation
      JOINT LeftFoot
      {
        OFFSET -0.253549 -42.0924 -1.46059
        CHANNELS 3 Zrotation Xrotation Yrotation
        JOINT LeftToes
        {
          OFFSET -0.04 -4.41509 8.4991
          CHANNELS 3 Zrotation Xrotation Yrotation
          End Site
          {
            OFFSET 0.08 -0.047448 9.77979
          }
        }
      }
    }
  }
}
MOTION
Frames:	10
Frame Time:	0.0166667
-14.0983 105.577 -45.0505 -4.09182 1.60597 174.496 -4.49755 -0.844076 -8.67103 -6.01555 45.7768 6.39324 7.38503 -1.37625 -0.26978 11.6718 13.0963 11.4471 1.72408 4.0912 -1.07435 -5.59377 -1.28535 0.0757291 1.73029 0.376249 8.58622 7.45443e-017 -3.97569e-016 7.95139e-016 -73.9902 -46.167 19.4722 -21.7928 17.1892 -27.6525 0.368473 9.90896 -0.00117926 -12.9741 -0.426843 11.1619 107.871 -25.1852 23.5262 18.2377 14.9553 15.7146 -0.369625 9.91382 0.00119887 -7.15885 -15.0113 -4.31499 -0.996956 14.086 18.3676 -7.44959 -4.47928 -0.0159238 8.57062 -3.78967 7.13494 
-14.3489 105.622 -46.7061 -4.5765 1.79243 174.313 -5.63695 -3.14575 -9.65342 -8.03576 48.7207 9.04755 8.41481 5.30246 -0.775921 11.718 13.9174 11.425 1.37848 4.13045 -1.12539 -5.96831 -0.881534 0.0920828 1.60815 0.0792174 8.74834 -2.48481e-017 -1.19271e-015 1.59028e-015 -74.9775 -46.0617 17.9976 -21.5601 17.2922 -28.3555 0.368473 9.90896 -0.00117926 -13.373 -0.477228 11.1363 108.384 -25.9415 22.8587 17.9219 14.6257 13.938 -0.369625 9.91382 0.00119887 -7.89775 -14.1052 -3.89919 -1.01182 14.6458 17.9972 -7.46629 -5.53449 -0.0820607 8.79946 -4.42164 7.30275 
-14.5804 105.681 -48.2686 -4.9231 1.93232 174.002 -6.52915 -5.62076 -10.5051 -10.5608 51.4166 11.7477 9.18376 11.7389 -1.31053 11.5759 13.3423 11.3257 0.979663 4.15583 -1.1189 -6.09315 -0.379284 0.116269 1.47821 -0.331444 8.93264 0 7.95139e-016 -0 -76.1294 -45.7856 16.3699 -21.3592 17.4345 -29.2584 0.368473 9.90896 -0.00117926 -13.7312 -0.5206 11.0579 108.696 -26.525 22.3562 17.6524 14.2929 12.0701 -0.369625 9.91382 0.00119887 -8.4409 -13.1584 -3.38447 -1.03238 14.9259 17.6957 -7.46423 -6.40268 -0.135659 9.01099 -5.16626 7.44985 
-14.778 105.819 -49.7919 -4.98995 1.97252 173.632 -6.86443 -8.09001 -10.776 -12.6423 53.9463 12.5649 9.51388 16.2627 -1.6906 10.6853 12.3935 10.4778 0.756674 4.09064 -1.09312 -6.00923 0.100008 0.136762 1.53513 -0.707373 9.13854 4.96962e-017 7.95139e-016 -1.59028e-015 -77.2102 -45.3748 14.576 -21.1866 17.5642 -30.0753 0.368473 9.90896 -0.00117926 -13.7061 -0.509654 10.8492 108.461 -26.8158 21.9087 17.5986 13.9501 10.0164 -0.369625 9.91382 0.00119887 -8.57999 -12.1408 -3.29812 -1.29 14.8814 17.9431 -7.43762 -7.2223 -0.186549 9.17767 -5.63736 7.57197 
-14.927 105.988 -51.2744 -4.87101 1.93033 173.267 -6.80135 -10.5497 -10.6113 -14.1726 56.4485 11.8376 9.1037 18.2727 -1.8077 9.64706 11.2296 9.53198 0.623842 4.02049 -1.04639 -5.76686 0.498883 0.152952 1.63567 -1.03194 9.30326 4.96962e-017 -1.59028e-015 1.59028e-015 -78.2818 -44.6511 12.5869 -21.1141 17.6553 -30.6575 0.368473 9.90896 -0.00117926 -13.4528 -0.468216 10.5594 107.97 -27.1098 21.5237 17.5562 13.6013 7.89297 -0.369625 9.91382 0.00119887 -8.45351 -11.1342 -3.19274 -1.58065 14.681 18.1835 -7.40852 -7.96775 -0.233357 9.33786 -6.03264 7.69294 
-14.99 106.173 -52.7445 -4.58065 1.78389 173.011 -6.34055 -12.9381 -9.84398 -14.5524 59.2053 8.67979 7.26333 15.5663 -1.34033 9.08762 10.5663 9.02698 0.613144 4.02528 -0.996647 -5.42984 0.639294 0.157596 1.68388 -1.21335 9.36311 -4.41391e-032 7.95139e-016 3.18055e-015 -79.2292 -43.3476 10.4185 -21.2575 17.6575 -30.6738 0.368473 9.90896 -0.00117926 -12.9411 -0.395786 10.2174 107.353 -27.7019 21.189 17.3645 13.2386 5.69451 -0.369625 9.91382 0.00119887 -8.101 -10.1954 -2.73993 -1.78046 14.4334 17.9529 -7.41546 -8.65967 -0.27921 9.47075 -6.34526 7.79176 
-15.0204 106.34 -54.1665 -4.21581 1.59787 172.808 -5.64058 -15.2407 -8.92066 -13.9195 61.4771 4.38846 5.19951 11.2719 -0.775097 8.57829 9.81025 8.55983 0.600034 4.04544 -0.923292 -4.99785 0.761616 0.159023 1.72441 -1.33011 9.31921 9.93923e-017 0 -0 -80.1577 -41.7414 8.0636 -21.494 17.6102 -30.3829 0.368473 9.90896 -0.00117926 -12.3823 -0.317918 9.80635 106.704 -28.4853 20.8471 17.0758 12.9059 3.6871 -0.369625 9.91382 0.00119887 -7.69043 -9.36065 -2.12534 -1.88865 14.2729 17.4592 -7.40425 -9.29777 -0.320483 9.73268 -6.80173 8.0007 
-15.0682 106.439 -55.4851 -3.87264 1.41311 172.522 -4.93517 -17.4901 -8.16646 -13.3711 62.7383 0.975843 3.8548 8.0737 -0.507271 7.75241 8.48827 7.81741 0.424276 4.05284 -0.782773 -4.3949 1.07894 0.163699 1.68938 -1.45236 9.23487 -2.98177e-016 -7.95139e-016 -0 -81.2414 -40.0212 5.4582 -21.7848 17.5349 -29.9292 0.368473 9.90896 -0.00117926 -12.1653 -0.278628 9.39386 106.336 -29.4493 20.533 16.6252 12.6587 2.117 -0.369625 9.91382 0.00119887 -7.38286 -8.75287 -1.27275 -1.82403 14.4328 16.6568 -7.31451 -9.88496 -0.353119 10.4211 -7.71293 8.56396 
-15.1062 106.497 -56.7867 -3.56305 1.27865 172.508 -4.31566 -19.4442 -7.83821 -12.8105 63.1172 -1.67662 2.91948 5.11895 -0.349774 6.92171 6.92845 7.10757 0.225421 4.03304 -0.661931 -3.91269 1.49506 0.170005 1.82365 -1.51281 8.86049 -4.41391e-032 -7.95139e-016 -3.18055e-015 -82.2862 -38.1788 2.66928 -21.9807 17.4191 -29.3271 0.368473 9.90896 -0.00117926 -11.73 -0.222535 8.75563 105.703 -30.601 19.9525 16.256 12.4887 1.02684 -0.369625 9.91382 0.00119887 -7.1981 -8.17326 -0.63134 -1.66951 14.7307 15.8321 -7.20311 -10.4322 -0.381453 11.1375 -8.81086 9.1366 
-15.1217 106.518 -58.1643 -3.36346 1.28867 173.268 -4.10525 -20.7599 -8.56758 -12.4431 62.4978 -2.90597 2.54703 2.54999 -0.265845 6.5019 5.12446 6.82585 0.125206 3.94442 -0.669879 -3.97183 1.99492 0.180127 2.47079 -1.41273 7.80363 -1.98785e-016 1.59028e-015 -1.59028e-015 -83.1572 -36.2313 -0.362219 -21.8603 17.2365 -28.5703 0.368473 9.90896 -0.00117926 -10.4216 -0.0822894 7.53865 104.143 -32.0092 18.6695 16.2479 12.4079 0.596631 -0.369625 9.91382 0.00119887 -7.25357 -7.40715 -0.747977 -1.4913 15.0316 15.3065 -7.06604 -10.9144 -0.403065 11.2942 -10.0428 9.22 
